<?xml version="1.0" encoding="UTF-8"?><svg id="Layer_1" xmlns="http://www.w3.org/2000/svg" width="2040" height="2040" viewBox="0 0 2040 2040"><path d="m1020,552.5c-23.49,0-42.5-19.01-42.5-42.5v-170c0-23.49,19.01-42.5,42.5-42.5s42.5,19.01,42.5,42.5v170c0,23.49-19.01,42.5-42.5,42.5Zm0,935c-23.49,0-42.5,19.01-42.5,42.5v170c0,23.49,19.01,42.5,42.5,42.5s42.5-19.01,42.5-42.5v-170c0-23.49-19.01-42.5-42.5-42.5Zm680-510h-170c-23.49,0-42.5,19.01-42.5,42.5s19.01,42.5,42.5,42.5h170c23.49,0,42.5-19.01,42.5-42.5s-19.01-42.5-42.5-42.5Zm-1147.5,42.5c0-23.49-19.01-42.5-42.5-42.5h-170c-23.49,0-42.5,19.01-42.5,42.5s19.01,42.5,42.5,42.5h170c23.49,0,42.5-19.01,42.5-42.5Zm858.18-330.54l149.37-149.41c16.6-16.6,16.6-43.5,0-60.1-16.6-16.6-43.5-16.6-60.1,0l-149.37,149.41c-16.6,16.6-16.6,43.5,0,60.1,16.6,16.6,43.5,16.6,60.1,0Zm-781.35,661.07l-149.37,149.41c-16.6,16.6-16.6,43.5,0,60.1,16.6,16.6,43.5,16.6,60.1,0l149.37-149.41c16.6-16.6,16.6-43.5,0-60.1-16.6-16.6-43.5-16.6-60.1,0Zm781.35,0c-16.6-16.6-43.5-16.6-60.1,0-16.6,16.6-16.6,43.5,0,60.1l149.37,149.41c16.6,16.6,43.5,16.6,60.1,0,16.6-16.6,16.6-43.5,0-60.1l-149.37-149.41Zm-721.25-661.07c16.6-16.6,16.6-43.5,0-60.1l-149.37-149.41c-16.6-16.6-43.5-16.6-60.1,0-16.6,16.6-16.6,43.5,0,60.1l149.37,149.41c16.6,16.6,43.5,16.6,60.1,0Zm717.35,330.54c0,210.92-171.58,382.5-382.5,382.5s-382.5-171.58-382.5-382.5,171.58-382.5,382.5-382.5,382.5,171.58,382.5,382.5Zm-85,0c0-164.02-133.48-297.5-297.5-297.5s-297.5,133.48-297.5,297.5,133.48,297.5,297.5,297.5,297.5-133.48,297.5-297.5Z"/></svg>