<?xml version="1.0" encoding="utf-8"?>
<!-- Generator: Adobe Illustrator 22.0.1, SVG Export Plug-In . SVG Version: 6.00 Build 0)  -->
<svg version="1.1" id="Layer_1" xmlns="http://www.w3.org/2000/svg" xmlns:xlink="http://www.w3.org/1999/xlink" x="0px" y="0px"
	 viewBox="0 0 68 68" style="enable-background:new 0 0 68 68;" xml:space="preserve">
<g>
	<g>
		<path d="M32.7749252,66.9775391c-13.9746075,0-26.4179668-8.3583984-31.7006817-21.2939453
			c-0.1650391-0.4042969-0.0488281-0.8681641,0.2871094-1.1474609c0.3359375-0.2783203,0.8144531-0.3085938,1.1806641-0.0703125
			c5.1967773,3.3525391,11.2314453,5.125,17.4511719,5.125c17.7690411,0,32.2255859-14.4560547,32.2255859-32.2255859
			c0-4.2021484-0.7998047-8.2949219-2.3769531-12.1660156c-0.1645508-0.4042969-0.0478516-0.8681641,0.2880859-1.1464844
			c0.3359375-0.28125,0.8129883-0.3085938,1.1806641-0.0703125c9.8242188,6.3427734,15.6894531,17.0976563,15.6894531,28.7705078
			C67.0000229,51.6240234,51.6465073,66.9775391,32.7749252,66.9775391z M4.2446537,47.7636719
			c5.5371094,10.5517578,16.4233398,17.2138672,28.5302715,17.2138672c17.769043,0,32.2250977-14.4560547,32.2250977-32.2246094
			c0-9.9423828-4.5200195-19.1787109-12.2314453-25.2714844c0.9633789,3.1933594,1.4501953,6.5058594,1.4501953,9.8837891
			c0,18.8720703-15.3535156,34.2255859-34.2255859,34.2255859C14.4717045,51.5908203,9.0874271,50.2753906,4.2446537,47.7636719z"/>
	</g>
	<g>
		<path d="M29.1723881,41.546875c-0.1591797,0-0.3188477-0.0380859-0.465332-0.1152344l-5.9726563-3.1396484l-5.9726563,3.1396484
			c-0.3369141,0.1787109-0.7446289,0.1494141-1.0532227-0.0761719c-0.3076172-0.2236328-0.4619141-0.6025391-0.3979492-0.9775391
			l1.140625-6.6513672l-4.8320313-4.7099609c-0.2724609-0.265625-0.3706055-0.6630859-0.2529297-1.0244141
			c0.1176758-0.3623047,0.4306641-0.6259766,0.8076172-0.6806641l6.6772461-0.9707031l2.9868164-6.0507813
			c0.168457-0.3417969,0.5161133-0.5576172,0.8964844-0.5576172l0,0c0.3808594,0,0.7285156,0.2158203,0.8969727,0.5576172
			l2.9858398,6.0507813l6.6772442,0.9707031c0.3769531,0.0546875,0.6899414,0.3183594,0.8076172,0.6806641
			c0.1176758,0.3613281,0.0195313,0.7587891-0.2529297,1.0244141l-4.8320293,4.7099609l1.1411133,6.6513672
			c0.0639648,0.375-0.090332,0.7539063-0.3979492,0.9775391C29.5859623,41.4824219,29.3794193,41.546875,29.1723881,41.546875z
			 M14.4663334,28.9990234l3.7578125,3.6630859c0.2353516,0.2294922,0.3427734,0.5605469,0.2875977,0.8847656l-0.887207,5.171875
			l4.6445313-2.4414063c0.2910156-0.1542969,0.6396484-0.1542969,0.9306641,0l4.6445313,2.4414063l-0.8876953-5.171875
			c-0.0551758-0.3242188,0.0522461-0.6552734,0.2875977-0.8847656l3.7578125-3.6630859l-5.1928711-0.7548828
			c-0.3256836-0.046875-0.6069336-0.2519531-0.7529297-0.546875l-2.3217773-4.7050781l-2.3227539,4.7050781
			c-0.1455078,0.2949219-0.4267578,0.5-0.7529297,0.546875L14.4663334,28.9990234z"/>
	</g>
	<g>
		<path d="M15.3916264,19.1015625c-0.1591797,0-0.3188477-0.0380859-0.465332-0.1152344l-4.5288086-2.3798828l-4.5283203,2.3798828
			c-0.3364258,0.1787109-0.7446289,0.1484375-1.0532227-0.0761719c-0.3076172-0.2236328-0.4619141-0.6025391-0.3979492-0.9775391
			l0.8647461-5.0419922L1.6196537,9.3193359C1.3467045,9.0537109,1.24856,8.65625,1.3662357,8.2949219
			c0.1176758-0.3623047,0.4306641-0.6259766,0.8071289-0.6806641l5.0629883-0.7363281l2.2641602-4.5878906
			c0.3378906-0.6835938,1.4560547-0.6835938,1.7939453,0l2.2641602,4.5878906l5.0629883,0.7363281
			c0.3764648,0.0546875,0.6894531,0.3183594,0.8071289,0.6806641c0.1176758,0.3613281,0.0195313,0.7587891-0.253418,1.0244141
			l-3.6630859,3.5712891l0.8652344,5.0419922c0.0639648,0.375-0.0898438,0.7539063-0.3979492,0.9775391
			C15.8052006,19.0371094,15.5986576,19.1015625,15.3916264,19.1015625z M4.4663334,9.3017578l2.5888672,2.5234375
			c0.2358398,0.2294922,0.3432617,0.5605469,0.2880859,0.8847656l-0.6113281,3.5634766l3.2001953-1.6816406
			c0.2910156-0.1542969,0.6396484-0.1542969,0.9306641,0l3.2006836,1.6816406l-0.6118164-3.5634766
			c-0.0556641-0.3242188,0.0522461-0.6552734,0.2880859-0.8847656l2.5888672-2.5234375L12.7505131,8.78125
			c-0.3256836-0.046875-0.6069336-0.2519531-0.7529297-0.546875l-1.6000977-3.2421875L8.7973881,8.234375
			c-0.1459961,0.2949219-0.4272461,0.5-0.7529297,0.546875L4.4663334,9.3017578z"/>
	</g>
	<g>
		<path d="M41.286644,15.3212891c-0.1591797,0-0.3188477-0.0380859-0.465332-0.1152344l-3.5449219-1.8632813l-3.5454102,1.8632813
			c-0.3369141,0.1787109-0.7446289,0.1494141-1.0532227-0.0761719c-0.3076172-0.2236328-0.4619141-0.6025391-0.3979492-0.9775391
			l0.6772461-3.9482422l-2.8686504-2.7958984c-0.2724609-0.265625-0.3706055-0.6630859-0.2529297-1.0244141
			c0.1176758-0.3623047,0.4306641-0.6259766,0.8076172-0.6806641l3.9638653-0.5761719l1.7724609-3.5917969
			c0.3369141-0.6835938,1.4570313-0.6835938,1.7939453,0l1.7724609,3.5917969l3.9633789,0.5761719
			c0.3769531,0.0546875,0.6899414,0.3183594,0.8076172,0.6806641c0.1176758,0.3613281,0.0195313,0.7587891-0.2529297,1.0244141
			l-2.8686523,2.7958984l0.6772461,3.9482422c0.0639648,0.375-0.090332,0.7539063-0.3979492,0.9775391
			C41.7002182,15.2568359,41.4936752,15.3212891,41.286644,15.3212891z M32.9355698,7.390625l1.7939453,1.7490234
			c0.2353516,0.2294922,0.3427734,0.5605469,0.2875977,0.8847656l-0.4233398,2.46875l2.2172852-1.1650391
			c0.2910156-0.1542969,0.6396484-0.1542969,0.9306641,0l2.2167969,1.1650391l-0.4233398-2.46875
			c-0.0551758-0.3242188,0.0522461-0.6552734,0.2875977-0.8847656l1.7939453-1.7490234l-2.4785156-0.3603516
			c-0.3261719-0.046875-0.6074219-0.2519531-0.753418-0.546875l-1.1083984-2.2460938l-1.1083984,2.2460938
			c-0.1459961,0.2949219-0.4277344,0.5-0.753418,0.546875L32.9355698,7.390625z"/>
	</g>
</g>
</svg>
