<svg id="Glyph" xmlns="http://www.w3.org/2000/svg" viewBox="0 0 64 64"><title>Space</title><path d="M56.30622,52.69984a1.01453,1.01453,0,0,0-.94016-.6801C31.19045,51.59407,20.55713,21.082,39.39366,5.82192a1.06072,1.06072,0,0,0-1.02049-1.80008C19.92462,3.724,5.97335,22.59431,11.569,40.128L12.919,37.33729l1.09021-2.2704a.99542.99542,0,0,1,1.79028-.02l2.75046,5.44092,6.051.82014a1.00782,1.00782,0,0,1,.57007,1.70031l-4.33071,4.3007.85018,4.64079c.068.61558.58559,1.906-.14007,2.34038,9.427,7.813,24.97157,7.56827,34.43569-.49024A.99285.99285,0,0,0,56.30622,52.69984Z"/><path d="M19.06,46.25876l3.26056-3.24053-4.56076-.6201a.95984.95984,0,0,1-.75013-.54013L14.9293,37.75734c-.44916.94158-1.57046,3.23874-1.9903,4.15075a1.036,1.036,0,0,1-.75015.55L7.638,43.16828l3.33057,3.17051a1.01611,1.01611,0,0,1,.3.89017l-.74011,4.54073,4.05066-2.18035a.98842.98842,0,0,1,.93021-.01l4.10066,2.10033-.83015-4.53072A1.01263,1.01263,0,0,1,19.06,46.25876Z"/><path d="M37.42305,20.52448a.99192.99192,0,0,0,.27007,1.02012l2.89043,2.71048-.59006,3.92064a1.00458,1.00458,0,0,0,1.47022,1.0302l3.48062-1.9203,3.54057,1.78026a.99807.99807,0,0,0,1.05016-.1.98567.98567,0,0,0,.38007-.98021L49.165,24.08507l2.7905-2.82048a1.01723,1.01723,0,0,0-.59017-1.70028l-3.94061-.49009-1.82032-3.52061a1.00366,1.00366,0,0,0-1.80029.04l-1.68027,3.59056-3.91069.65014A.98451.98451,0,0,0,37.42305,20.52448Z"/></svg>